# xmcd
# 
# Track frame offsets:
#     150
#     13475
#     24620
#     39272
#     55945
#     73255
#     90032
#     103392
#     113125
#     127275
#     138527
#     150090
#     158207
#     168945
#     185990
#     199575
#     217522
#     232072
# 
# Disc length: 3319
# 
# Revision: 2
# Processed by: cddbd v1.5.2PL0 Copyright (c) Steve Scherf et al.
# Submitted via: BonkEnc v1.0.6
# 
DISCID=f90cf512
DTITLE=Various Artist - Country Hits
DYEAR=1996
DGENRE=Country
TTITLE0=Kenny Rogers - Ruby don't take your love to town
TTITLE1=Roger Miller - King of the road
TTITLE2=Glen Campbell - Rhinestone cowboy
TTITLE3=Donna Fargo - The house of the rising sun
TTITLE4=Janie Fricke - Blowin' in the wind
TTITLE5=Kitty Wells - On top of old smokey
TTITLE6=Lynn Anderson - Frankie and Johnny
TTITLE7=Dave Dudley - Truck drivin' son-of-a-gun
TTITLE8=Jean Shepard - Tom Dooley
TTITLE9=The Dillards - Big bayou
TTITLE10=Willie Nelson - Night life
TTITLE11=George Jones - Jambalaya (On the bayou)
TTITLE12=Ferlin Husky - Wings of a dove
TTITLE13=Stonewall Jackson - I washed my hands in muddy water
TTITLE14=Jean Shepard - The blue tail fly
TTITLE15=Lynn Anderson - Go tell it on the mountain
TTITLE16=Kitty Wells - Careless Love
TTITLE17=Donna Fargo - Battle hymn of the republic
EXTD=YEAR: 1996
EXTT0=
EXTT1=
EXTT2=
EXTT3=
EXTT4=
EXTT5=
EXTT6=
EXTT7=
EXTT8=
EXTT9=
EXTT10=
EXTT11=
EXTT12=
EXTT13=
EXTT14=
EXTT15=
EXTT16=
EXTT17=
PLAYORDER=
